<svg width="112" height="121" viewBox="0 0 112 121" fill="none" xmlns="http://www.w3.org/2000/svg">
<path d="M42.2831 20.8477C42.0428 19.8624 41.048 19.2549 40.0724 19.5323C33.257 21.4706 26.9471 24.8804 21.611 29.5199C15.8144 34.5597 11.3412 40.8991 8.57807 47.9901C5.81494 55.0811 4.84496 62.7105 5.75193 70.219C6.6589 77.7274 9.41555 84.8891 13.7837 91.0851C18.1518 97.2811 24 102.325 30.8229 105.781C37.6457 109.237 45.2381 111.001 52.9438 110.921C60.6496 110.841 68.2369 108.919 75.0501 105.321C81.3014 102.02 86.7285 97.3996 90.9421 91.804C91.5664 90.9749 91.3382 89.8004 90.4731 89.2269V89.2269C89.6322 88.6694 88.503 88.8899 87.8947 89.6948C84.0199 94.8222 79.0373 99.0572 73.3015 102.086C67.0256 105.4 60.0367 107.171 52.9388 107.244C45.8409 107.318 38.8474 105.693 32.5626 102.51C26.2779 99.3262 20.891 94.68 16.8674 88.9727C12.8439 83.2654 10.3047 76.6687 9.46922 69.7524C8.63379 62.8362 9.52726 55.8086 12.0724 49.2769C14.6176 42.7452 18.738 36.9059 24.0774 32.2635C28.9562 28.0216 34.7188 24.8956 40.9434 23.1036C41.918 22.823 42.5234 21.8331 42.2831 20.8477V20.8477Z" fill="url(#paint0_linear_2124_23376)"/>
<path d="M45.8751 22.196C48.0865 21.0304 50.6702 22.3664 51.7705 24.4777C53.7208 28.2207 55.1635 32.2242 56.1619 36.338C58.6375 46.5451 57.7628 57.445 53.9781 67.1059C53.7131 67.1655 53.448 67.228 53.1838 67.295C49.2036 68.2826 45.3376 69.7285 41.7278 71.7033C41.5794 71.784 41.4346 71.8736 41.2962 71.9696C41.9711 70.9991 42.6107 69.9981 43.2094 68.9703C43.6584 68.1995 44.0738 67.4125 44.4843 66.618C44.5597 66.4558 44.6377 66.2954 44.7117 66.1331C44.9167 65.6864 45.115 65.2361 45.3051 64.7836C45.959 63.2304 46.5268 61.6389 47.0051 60.019C47.2492 59.1987 47.4689 58.3704 47.6652 57.5385C47.7114 57.3406 47.7575 57.1428 47.801 56.9446C47.8092 56.911 47.819 56.8574 47.8321 56.797C47.8334 56.7799 47.8403 56.7633 47.8429 56.7478C47.8547 56.6858 47.8664 56.6267 47.8732 56.5929C47.9113 56.3914 47.9493 56.1914 47.9834 55.9881C48.2786 54.3064 48.4822 52.6047 48.5929 50.8971C48.6538 49.9649 48.6881 49.0331 48.695 48.0973C48.6981 47.686 48.6944 47.2741 48.6864 46.8632C48.683 46.6578 48.6756 46.452 48.6708 46.2479C48.665 46.091 48.6966 45.9549 48.7169 45.9267C48.7025 45.2614 48.5439 44.5179 48.48 43.9153C48.394 43.1156 48.2886 42.3155 48.1591 41.5203C47.8928 39.846 47.5349 38.1875 47.0887 36.5537C47.0378 36.3696 46.9856 36.184 46.9334 35.9984C46.8158 35.6704 46.7231 35.3275 46.6113 34.9972C46.3596 34.2522 46.0893 33.514 45.7989 32.7825C45.187 31.2377 44.4901 29.7309 43.7235 28.259C42.5448 25.9941 43.8462 23.2699 45.8732 22.2016L45.8751 22.196Z" fill="#369AD5"/>
<path d="M41.8352 71.7226C45.2579 69.5896 48.9189 68.0118 52.6807 66.9198C62.0145 64.2123 71.9805 65.1688 80.8148 69.3066C80.8694 69.5964 80.9266 69.8864 80.9878 70.1753C81.8911 74.5269 83.2157 78.7568 85.0189 82.7046C85.0927 82.8668 85.1747 83.0252 85.2636 83.1782C84.375 82.4385 83.4596 81.7389 82.5209 81.0858C81.8184 80.598 81.1001 80.1438 80.3799 79.697C80.2292 79.6127 80.0774 79.5254 79.9252 79.4426C79.5178 79.22 79.1061 79.0032 78.691 78.7951C77.2707 78.08 75.8154 77.4589 74.3329 76.9343C73.584 76.6689 72.8266 76.4287 72.0646 76.2123C71.8851 76.1604 71.7039 76.1129 71.5242 76.064C71.5062 76.0593 71.4792 76.0522 71.4484 76.0447C71.4369 76.0406 71.4254 76.0365 71.4125 76.0337C71.3687 76.0235 71.3198 76.0113 71.2762 75.9996C71.2452 75.9936 71.2195 75.9866 71.2001 75.9833C71.017 75.9432 70.8327 75.903 70.6482 75.8644C69.1104 75.5415 67.5543 75.3189 65.9928 75.1978C65.1404 75.1312 64.2869 75.095 63.4311 75.0875C63.055 75.0841 62.6798 75.0868 62.3014 75.0953C62.1149 75.0991 61.928 75.1074 61.7414 75.1126C61.598 75.1189 61.4719 75.0873 61.4463 75.0635C60.8379 75.0793 60.1594 75.2514 59.6084 75.3213C58.8757 75.4167 58.144 75.532 57.4171 75.6706C55.8847 75.9632 54.3695 76.3533 52.874 76.8427C52.7112 76.8959 52.5468 76.9519 52.3851 77.0067C52.0784 77.1377 51.7582 77.24 51.4508 77.3632C50.7707 77.6402 50.0957 77.9359 49.4268 78.2534C48.0142 78.9226 46.635 79.6848 45.2892 80.5216C43.2192 81.8124 40.7284 80.386 39.7515 78.1691C38.6856 75.7505 39.9045 72.926 41.8352 71.7226Z" fill="#2FCD9A"/>
<path d="M51.5444 23.8876C52.433 24.6273 53.3484 25.3269 54.287 25.98C54.9958 26.4714 55.7179 26.9275 56.4442 27.3795C56.5901 27.4587 56.7368 27.5441 56.8826 27.6248C57.2911 27.8489 57.7017 28.0641 58.1154 28.2721C59.5357 28.9872 60.9936 29.6085 62.4735 30.133C63.2235 30.3999 63.9798 30.6386 64.7417 30.8549C64.9226 30.9054 65.1023 30.9543 65.2835 31.0018C65.3156 31.0109 65.367 31.0234 65.4249 31.0379C65.4442 31.0428 65.4608 31.0489 65.479 31.0506C65.4983 31.0555 65.5151 31.0586 65.5331 31.0633C65.5641 31.0693 65.5897 31.0763 65.6091 31.0796C65.7922 31.1197 65.9751 31.1613 66.161 31.1986C67.6988 31.5214 69.2562 31.7442 70.8163 31.8652C71.6687 31.9317 72.522 31.9709 73.3765 31.9768C73.7526 31.9802 74.1305 31.9777 74.5062 31.969C74.694 31.9653 74.881 31.9555 75.0688 31.9519C75.2068 31.9482 75.3291 31.9764 75.36 32.0006C75.9696 31.9865 76.648 31.8144 77.2005 31.7431C77.9329 31.6507 78.6634 31.5338 79.3917 31.3938C80.9227 31.1026 82.4392 30.7111 83.9347 30.2217C84.0975 30.1685 84.2619 30.1124 84.4263 30.0564C84.7316 29.9268 85.0506 29.8229 85.3579 29.6996C86.038 29.4226 86.7131 29.127 87.3817 28.8124C88.7945 28.1402 90.1736 27.3795 91.5195 26.5412C93.5906 25.252 96.0802 26.6767 97.057 28.8936C98.123 31.3123 96.9013 34.1381 94.9721 35.3402C91.5494 37.4732 87.887 39.0525 84.1255 40.1429C74.7931 42.8522 64.8274 41.8942 55.9934 37.7549C55.9388 37.4651 55.8817 37.1751 55.8205 36.8862C54.9172 32.5345 53.5938 28.3061 51.7895 24.3567C51.7157 24.1944 51.6337 24.036 51.5448 23.8831L51.5444 23.8876Z" fill="#475EBD"/>
<path d="M82.8289 39.958C83.0939 39.8983 83.3591 39.8358 83.6232 39.7689C87.6036 38.7812 91.4711 37.334 95.0809 35.3607C95.2292 35.28 95.3726 35.1917 95.5124 35.0944C94.8361 36.0661 94.1964 37.0672 93.5993 38.0937C93.1518 38.8632 92.7363 39.6502 92.3261 40.4405C92.2506 40.604 92.1723 40.7687 92.0954 40.9321C91.8919 41.3776 91.6936 41.8279 91.5035 42.2804C90.8496 43.8336 90.283 45.4266 89.802 47.0463C89.5593 47.8667 89.341 48.6951 89.1419 49.5268C89.0957 49.7247 89.0509 49.9227 89.0076 50.1193C88.9992 50.1544 88.9879 50.2107 88.9745 50.274C88.9688 50.2935 88.9645 50.3132 88.9629 50.3331C88.9622 50.3417 88.9589 50.3485 88.9584 50.3556C88.9476 50.4034 88.9401 50.4457 88.9351 50.4739C88.8985 50.6741 88.8617 50.8757 88.8264 51.0775C88.5312 52.7591 88.3275 54.4623 88.2154 56.1698C88.1546 57.1019 88.1215 58.0353 88.1148 58.9682C88.1129 59.3811 88.1139 59.7928 88.122 60.2037C88.1253 60.4091 88.1342 60.6135 88.1376 60.8189C88.1423 60.9714 88.1152 61.1036 88.093 61.1374C88.106 61.804 88.2646 62.5475 88.3285 63.1501C88.4129 63.9511 88.5213 64.75 88.6479 65.5464C88.9141 67.2207 89.2721 68.8792 89.7183 70.513C89.7682 70.6927 89.8195 70.8725 89.8693 71.0521C89.9878 71.386 90.0828 71.7348 90.1956 72.0709C90.4488 72.8147 90.7191 73.5529 91.0082 74.2828C91.6214 75.8291 92.317 77.3358 93.0834 78.8091C94.2635 81.0742 92.9593 83.7995 90.9336 84.868C88.7221 86.0336 86.1383 84.6976 85.038 82.5863C83.0904 78.8435 81.6464 74.8384 80.6465 70.726C78.1694 60.5201 79.0454 49.6203 82.8289 39.958Z" fill="#00F47A"/>
<defs>
<linearGradient id="paint0_linear_2124_23376" x1="63.9124" y1="109.545" x2="41.848" y2="19.0635" gradientUnits="userSpaceOnUse">
<stop stop-color="#00F47A"/>
<stop offset="1" stop-color="#3A81F3"/>
</linearGradient>
</defs>
</svg>
